<svg id="svg4" xmlns="http://www.w3.org/2000/svg" xmlns:xlink="http://www.w3.org/1999/xlink" viewBox="0 0 171.66 41.75"><defs><style>.cls-1{fill:url(#linear-gradient);}</style><linearGradient id="linear-gradient" x1="172.69" y1="23.3" x2="-33.81" y2="22.62" gradientTransform="matrix(1, 0, 0, -1, 0, 44)" gradientUnits="userSpaceOnUse"><stop offset="0" stop-color="#f3d9ce"/><stop offset="1" stop-color="#d3d0e4"/></linearGradient></defs><path id="path2" class="cls-1" d="M.19,2.82H25.91v7H7.57v9.43H25.91v6.9H7.57V41.29H.19ZM34.65.13a4.14,4.14,0,0,1,4.27,4,1.82,1.82,0,0,1,0,.33A4.12,4.12,0,0,1,35,8.78H34.6a4.09,4.09,0,0,1-4.27-3.9V4.56A4.27,4.27,0,0,1,34.44.13ZM31,12.83h7.27V41.29H31Zm28.35,7.91a5.9,5.9,0,0,0-3.53-1.27c-3,0-4.64,1.9-4.64,6.06V41.29H44V12.83h6.9v4.11a6.8,6.8,0,0,1,6.8-4.37A8.7,8.7,0,0,1,62.53,14Zm3,6.48c0-8.17,6.06-15,14.65-15s14.59,6.06,14.59,14.49v3H69.48c.79,3.58,3.58,6,7.85,6a7.62,7.62,0,0,0,7.06-4.21l6.06,3.63c-3,4.43-7.27,6.75-13.33,6.75-9.22,0-14.75-6.18-14.75-14.66ZM69.59,24h15c-.79-3.63-3.74-5.63-7.59-5.63A7.31,7.31,0,0,0,69.59,24ZM93.4,12.83h5.11V11.41c0-7.75,3.27-11,10.44-11h2.53V6.72h-2.06c-3.37,0-4.11,1.16-4.11,4.69v1.42h6.17v6.54h-6V41.29h-7V19.37H93.4Zm19.45,14.23a14.56,14.56,0,0,1,14.3-14.81h.55a14.81,14.81,0,0,1,0,29.62h0C118.85,41.87,112.85,35.38,112.85,27.06Zm22.65,0a7.8,7.8,0,0,0-15.59-.56,5.23,5.23,0,0,0,0,.56,7.8,7.8,0,0,0,15.59.56A5.23,5.23,0,0,0,135.5,27.06Zm16.86-.32L142.09,12.83h8.53l6.06,8.75,6.22-8.75h8.38L160.85,26.69l11,14.6h-8.49L156.53,32l-6.59,9.28h-8.48Z" transform="translate(-0.19 -0.13)"/></svg>
